<svg xmlns="http://www.w3.org/2000/svg" width="720" height="1280" viewBox="0 0 720 1280" version="1.1">
	<path d="M 340.965 367.815 C 337.921 368.825, 323.071 375.971, 307.965 383.697 C 292.859 391.422, 263.850 406.180, 243.500 416.491 C 155.482 461.090, 154.034 461.877, 150.896 466.825 C 144.934 476.225, 144.686 484.373, 150.074 493.807 C 153.533 499.863, 158.174 503.514, 170 509.482 C 181.318 515.193, 183.576 517.056, 182.230 519.567 C 180.906 522.035, 172.433 530, 171.131 530 C 169.417 530, 163.837 543.179, 163.285 548.530 C 162.798 553.242, 162.981 553.840, 165.512 555.831 C 167.029 557.024, 168.884 558, 169.635 558 C 170.757 558, 171 563.230, 171 587.438 C 171 624.329, 172.294 631.094, 182.489 647.500 C 190.736 660.771, 197.270 665.718, 237 688.777 C 246.075 694.044, 262.050 703.391, 272.500 709.547 C 304.266 728.263, 336.322 747.172, 339.618 749.139 C 352.862 757.042, 368.232 741.828, 361.448 727.531 C 359.287 722.977, 347.309 715.508, 293.500 685.161 C 289.100 682.680, 277.400 675.849, 267.500 669.982 C 257.600 664.115, 243.200 655.780, 235.500 651.460 C 219.704 642.597, 212.553 636.509, 208.704 628.648 C 204.214 619.479, 203.838 615.708, 204.551 587.027 L 205.210 560.500 199.152 557.079 C 195.820 555.197, 193.331 553.274, 193.621 552.804 C 193.911 552.335, 193.778 552.054, 193.324 552.180 C 191.577 552.667, 185.343 549.817, 182 547.001 C 178.742 544.258, 178.660 544.052, 180.809 544.027 C 182.079 544.012, 182.869 543.598, 182.566 543.106 C 182.052 542.274, 183.104 542.130, 190.218 542.055 C 191.842 542.038, 193.986 543.077, 195.544 544.635 C 197.774 546.865, 198.754 547.162, 202.305 546.686 C 204.588 546.380, 206.599 545.702, 206.773 545.180 C 206.965 544.606, 208.554 544.562, 210.795 545.069 C 212.833 545.530, 215.512 545.654, 216.750 545.345 C 218.068 545.016, 219 545.242, 219 545.892 C 219 546.501, 219.702 547, 220.559 547 C 221.476 547, 221.826 546.528, 221.410 545.854 C 220.716 544.731, 223.405 545.067, 227.407 546.603 C 230.185 547.669, 229.170 544.618, 226.052 542.529 C 220.567 538.854, 223.894 539.710, 230.717 543.728 C 237.391 547.659, 245.085 552.016, 250 554.649 C 251.375 555.385, 251.894 555.990, 251.154 555.994 C 250.414 555.997, 248.502 555.069, 246.904 553.932 C 243.355 551.405, 243.211 551.857, 246.452 555.354 C 248.990 558.093, 252.988 558.943, 253.015 556.750 C 253.025 555.924, 253.280 555.859, 253.765 556.557 C 254.169 557.138, 255.957 558.203, 257.737 558.923 C 259.650 559.696, 260.710 560.696, 260.327 561.366 C 259.971 561.990, 260.031 562.183, 260.460 561.796 C 261.242 561.092, 270.316 565.302, 276.963 569.453 C 278.908 570.667, 283.650 573.380, 287.500 575.481 C 291.350 577.582, 302.803 584.014, 312.952 589.774 C 323.101 595.534, 333.901 601.140, 336.952 602.231 C 346.097 605.503, 372 605.218, 372 601.846 C 372 601.342, 371.075 601.425, 369.945 602.030 C 368.814 602.635, 367.403 602.968, 366.809 602.770 C 366.215 602.572, 367.596 601.677, 369.877 600.780 C 372.571 599.722, 373.819 599.563, 373.438 600.326 C 373.116 600.972, 373.490 600.722, 374.271 599.771 C 376.679 596.836, 381.201 594.922, 382.729 596.190 C 384.799 597.908, 391.365 595.556, 392.993 592.512 C 393.733 591.131, 394.738 590, 395.228 590 C 395.718 590, 395.868 589.595, 395.562 589.100 C 394.440 587.284, 403.178 583.773, 407.211 584.418 C 409.700 584.816, 411 584.640, 411 583.905 C 411 583.289, 411.685 583.049, 412.523 583.370 C 413.361 583.692, 414.934 583.066, 416.023 581.977 C 417.110 580.890, 418.605 580, 419.345 580 C 421.690 580, 424.154 576.554, 422.786 575.186 C 421.871 574.271, 421.989 574, 423.300 574 C 424.235 574, 425.928 573.072, 427.063 571.937 C 428.362 570.638, 430.122 569.985, 431.813 570.176 C 433.538 570.370, 434.411 570.035, 434.250 569.239 C 434.112 568.558, 434.830 568, 435.844 568 C 436.859 568, 438.996 566.876, 440.594 565.501 C 442.193 564.127, 443.801 563.002, 444.168 563.001 C 444.536 563.001, 445.622 562.699, 446.582 562.330 C 447.908 561.821, 448.122 562.001, 447.472 563.080 C 446.743 564.289, 446.866 564.298, 448.297 563.137 C 449.222 562.387, 449.761 561.422, 449.495 560.991 C 448.839 559.930, 451.916 558.830, 453.245 559.651 C 453.830 560.013, 454.049 559.889, 453.731 559.375 C 453.414 558.861, 457.957 555.999, 463.827 553.015 C 469.697 550.031, 478.325 545.543, 483 543.041 C 487.675 540.540, 492.783 537.921, 494.352 537.222 L 497.203 535.950 496.870 578.225 C 496.494 625.817, 496.236 624.039, 504.113 628.058 C 511.860 632.010, 520.519 630.120, 525.684 623.348 L 528.471 619.694 529.148 575.597 C 529.521 551.344, 529.865 528.467, 529.913 524.760 L 530 518.020 538.925 513.538 C 553.139 506.399, 558 500.093, 558 488.795 C 558 481.139, 554.571 473.263, 549.647 469.610 C 547.916 468.326, 540.200 463.776, 532.500 459.498 C 524.800 455.221, 513.550 448.930, 507.500 445.517 C 501.450 442.104, 490.650 436.032, 483.500 432.023 C 476.350 428.014, 467.575 423.060, 464 421.014 C 440.723 407.692, 375.479 371.649, 370.587 369.410 C 362.684 365.793, 349.243 365.069, 340.965 367.815 M 232.624 548.538 C 231.934 550.335, 234.243 551.505, 236.653 550.579 C 238.144 550.007, 238.120 549.803, 236.403 548.504 C 233.957 546.652, 233.345 546.658, 232.624 548.538 M 387.758 624.379 C 379.100 628.845, 372.027 632.725, 372.042 633 C 372.056 633.275, 375.315 635.359, 379.284 637.631 C 398.904 648.862, 415.518 658.506, 436 670.555 C 448.375 677.835, 462.775 686.111, 468 688.946 C 479.066 694.950, 486.944 702.522, 490.901 710.959 L 493.500 716.500 493.301 752.404 C 493.079 792.315, 492.536 796.319, 486 806.187 C 480.872 813.929, 476.785 816.574, 443.500 833.697 C 425.900 842.750, 402.275 855.021, 391 860.963 C 361.891 876.306, 359.445 877.263, 347.996 877.782 C 335.117 878.366, 329.240 876.259, 306.500 862.908 C 287.029 851.475, 255.810 833.327, 239 823.669 C 212.750 808.586, 209.788 806.312, 205.562 798 C 201.028 789.083, 200.665 784.985, 201.540 752.597 C 202.491 717.354, 202.470 716.603, 200.397 713.095 C 196.127 705.866, 186.437 703.982, 177.467 708.638 C 168.515 713.283, 168.123 715.533, 168.340 761 L 168.500 794.500 171.308 802.500 C 179.546 825.972, 187.240 833.097, 231 857.774 C 251.953 869.590, 287.708 890.333, 296.500 895.774 C 323.515 912.491, 345.986 915.968, 371.387 907.360 C 377.098 905.424, 400.501 893.817, 417.467 884.505 C 419.685 883.287, 427.800 879.016, 435.500 875.014 C 474.570 854.707, 486.688 848.216, 493 844.212 C 505.545 836.254, 516.304 821.737, 522.060 805 C 525.410 795.260, 527.240 727.417, 524.504 714.381 C 521.816 701.573, 516.505 691.427, 506.058 679.138 C 501.082 673.285, 493.415 667.814, 476.500 658.045 C 470.450 654.551, 459.200 647.987, 451.500 643.459 C 434.289 633.338, 403.852 615.954, 403.649 616.129 C 403.567 616.199, 396.416 619.912, 387.758 624.379" stroke="none" fill="#5d37a8" fill-rule="evenodd"/>
</svg>