<svg xmlns="http://www.w3.org/2000/svg" width="720" height="1280" viewBox="0 0 720 1280" version="1.1">
	<path d="M 155.973 553.837 C 130.024 567.590, 104.207 582.095, 101.750 584.301 C 99.633 586.201, 99 587.677, 99 590.711 C 99 595.548, 100.761 597.358, 111 603.041 C 167.538 634.422, 163.300 632.322, 168.985 631.775 C 172.624 631.426, 176.889 629.565, 186.163 624.283 C 192.948 620.419, 202.438 615.133, 207.250 612.537 L 216 607.819 216 622.287 C 216 638.126, 216.446 639.426, 221.666 638.822 C 226.240 638.293, 226.969 635.353, 226.985 617.371 L 227 601.243 230.034 599.986 C 236.063 597.488, 238.952 590.154, 235.629 585.779 C 234.484 584.271, 213.832 572.374, 182.822 555.357 C 169.006 547.777, 167.562 547.695, 155.973 553.837 M 284.094 604.281 C 276.653 607.335, 272.811 612.240, 272.213 619.444 C 271.119 632.639, 276.882 638.014, 297.502 643.031 C 312.048 646.571, 316.647 652.020, 312.353 660.627 C 309.888 665.568, 305.083 668, 297.786 668 C 286.676 668, 281.098 663.910, 278.835 654.105 L 277.657 649 273.328 649 L 269 649 269 653.321 C 269 671.589, 292.691 682.746, 311.716 673.438 C 324.719 667.076, 327.264 650.134, 316.544 641.297 C 313.088 638.448, 310.235 637.399, 292.602 632.498 C 282.107 629.580, 277.932 622.171, 283.088 615.615 C 291.791 604.551, 313 611.075, 313 624.816 C 313 626.747, 313.536 627, 317.636 627 L 322.272 627 321.653 622.483 C 319.357 605.736, 301.560 597.111, 284.094 604.281 M 486.199 617.502 C 486.364 625.477, 486.340 632.002, 486.144 632.002 C 485.948 632.001, 484.934 630.914, 483.890 629.587 C 480.887 625.769, 474.122 623, 467.798 623 C 444.696 623, 434.516 654.961, 452.561 670.844 C 461.618 678.817, 474.909 679.024, 482.620 671.314 L 485.882 668.051 486.191 671.776 C 486.489 675.371, 486.644 675.510, 490.659 675.803 C 496.100 676.199, 495.879 677.860, 495.841 636.750 L 495.810 603 490.854 603 L 485.897 603 486.199 617.502 M 346 614.500 L 346 624 338.500 624 L 331 624 331 628 L 331 632 338.500 632 L 346 632 346 650.050 C 346 674.732, 345.992 674.719, 361.250 675.721 L 370 676.296 370 671.714 L 370 667.132 363.649 667.217 C 360.156 667.264, 356.781 666.983, 356.149 666.592 C 355.357 666.102, 355 660.621, 355 648.941 L 355 632 364.500 632 L 374 632 374 628 L 374 624 364.500 624 L 355 624 355 614.500 L 355 605 350.500 605 L 346 605 346 614.500 M 108.691 626.250 C 109.155 641.279, 111.333 647.880, 117.328 652.418 C 122.742 656.518, 164.351 680.116, 167.157 680.680 C 170.247 681.300, 173.575 677.388, 172.592 674.291 C 171.938 672.229, 171.678 672.065, 144 656.162 C 119.260 641.948, 118.528 641.092, 119.308 627.302 C 119.817 618.320, 119.567 617.794, 113.300 614.621 C 108.283 612.080, 108.256 612.147, 108.691 626.250 M 585.764 623.996 C 568.294 629.256, 561.911 653.529, 574.298 667.601 C 591.777 687.458, 623.134 673.472, 620.724 646.893 C 619.167 629.721, 602.659 618.909, 585.764 623.996 M 385.698 624.697 C 385.430 625.139, 385.303 633.825, 385.414 644 C 385.629 663.665, 386.483 667.512, 391.680 672.212 C 398.939 678.776, 412.114 678.340, 418.738 671.316 L 422 667.858 422 671.929 L 422 676 426.500 676 L 431 676 431 650 L 431 624 426.500 624 L 422 624 421.978 640.250 C 421.951 660.242, 420.802 663.873, 413.480 667.112 C 408.665 669.242, 405.046 669.059, 399.891 666.427 C 395.477 664.173, 394.659 660.357, 394.576 641.623 L 394.500 624.500 390.342 624.197 C 388.055 624.030, 385.965 624.255, 385.698 624.697 M 509.174 643.250 C 509.530 664.286, 510.630 668.486, 517 673.155 C 523.691 678.058, 537.016 677.184, 542.733 671.467 L 546 668.200 546 677.521 L 546 686.841 542.848 687.533 C 541.115 687.914, 534.477 688.062, 528.098 687.863 L 516.500 687.500 516.193 691.750 L 515.885 696 531.492 696 C 556.983 696, 555.599 698.670, 555.211 650.250 L 555 624 550.500 624 L 546 624 545.978 640.250 C 545.947 663.101, 543.353 668.006, 531.300 667.996 C 519.946 667.987, 518.014 663.955, 518.006 640.250 L 518 624 513.424 624 L 508.847 624 509.174 643.250 M 462.500 632.412 C 450.018 637.959, 449.321 660.099, 461.432 666.354 C 475.555 673.649, 489.369 661.403, 485.834 644.721 C 483.530 633.845, 472.439 627.994, 462.500 632.412 M 587.390 632.432 C 574.459 638.060, 573.796 660.404, 586.381 666.377 C 595.025 670.478, 605.709 667.224, 609.577 659.311 C 612.134 654.081, 612.148 643.613, 609.603 639.386 C 605.260 632.169, 595.217 629.025, 587.390 632.432 M 179.691 638.749 L 174.883 641.331 183.191 646.087 C 218.642 666.382, 216 663.464, 216 682.328 C 216 697.671, 215.216 699.520, 206.645 704.398 C 167.284 726.797, 168.021 726.525, 159.413 721.750 C 135.273 708.358, 123.508 701.118, 121.646 698.509 C 119.783 695.897, 119.454 693.850, 119.154 683 C 118.793 669.978, 117.834 667, 114 667 C 109.892 667, 108.947 670.059, 108.832 683.721 C 108.726 696.234, 108.829 696.915, 111.585 701.980 C 115.168 708.562, 116.153 709.282, 140.326 722.974 C 168.950 739.186, 166.806 739.273, 199.500 720.579 C 225.096 705.944, 226.225 704.467, 226.815 684.843 C 227.506 661.882, 224.966 657.901, 200.920 644.250 C 184.481 634.918, 186.065 635.328, 179.691 638.749" stroke="none" fill="#5734a4" fill-rule="evenodd"/>
</svg>