<svg xmlns="http://www.w3.org/2000/svg" width="720" height="1280" viewBox="0 0 720 1280" version="1.1">
	<path d="M 154.399 548.602 C 151.705 550.034, 142.075 555.268, 133 560.234 C 92.497 582.399, 92.691 582.274, 91.555 587 C 90.322 592.130, 93.690 595.927, 105 602.157 C 148.011 625.848, 158.375 631.238, 161.748 631.667 C 166.022 632.211, 165.721 632.352, 192.673 617.210 C 202.669 611.595, 211.320 607, 211.897 607 C 212.573 607, 213.046 612.430, 213.224 622.227 L 213.500 637.454 216.220 638.409 C 218.374 639.166, 219.362 638.983, 220.970 637.527 C 222.865 635.812, 223 634.509, 223 617.871 L 223 600.051 226.250 598.409 C 232.007 595.499, 234 593.015, 234 588.750 C 234 583.505, 233.360 583.016, 208 568.875 C 161.908 543.175, 163.490 543.773, 154.399 548.602 M 284.994 601.934 C 274.132 605.238, 267.691 615.263, 269.962 625.331 C 272.176 635.147, 276.147 637.578, 301.215 644.465 C 309.773 646.817, 312.500 649.603, 312.500 655.995 C 312.500 662.161, 308.987 666.117, 301.789 668.059 C 289.411 671.398, 278.154 664.881, 276.429 653.377 L 275.758 648.900 271.129 649.200 L 266.500 649.500 266.805 654 C 267.777 668.355, 279.063 677.401, 296 677.401 C 312.173 677.402, 322 669.003, 322 655.180 C 322 644.219, 315.780 638.661, 298.458 634.145 C 284.998 630.636, 281.652 628.988, 280.026 625.064 C 276.510 616.574, 283.380 609, 294.597 609 C 303.658 609, 310.324 614.309, 311.553 622.505 L 312.227 627 316.614 627 C 320.862 627, 321 626.902, 321 623.866 C 321 614.888, 314.419 605.353, 306.319 602.593 C 301.468 600.940, 289.479 600.570, 284.994 601.934 M 490 617.106 L 490 632.212 487.091 629.098 C 480.953 622.527, 472.524 620.613, 463.110 623.653 C 445.747 629.261, 439.943 654.970, 452.823 669.226 C 462.415 679.843, 479.981 680.467, 487.845 670.470 L 489.879 667.884 490.190 672.102 C 490.497 676.278, 490.542 676.324, 494.750 676.711 L 499 677.102 499 639.551 L 499 602 494.500 602 L 490 602 490 617.106 M 345.948 604.750 C 345.920 605.163, 345.807 609.550, 345.698 614.500 L 345.500 623.500 338 623.500 L 330.500 623.500 330.190 627.250 L 329.879 631 337.363 631 L 344.847 631 345.174 650.250 C 345.609 675.949, 345.478 675.736, 361.170 676.081 L 370.500 676.286 370.500 672.393 L 370.500 668.500 363.528 668.199 C 359.510 668.026, 356.232 667.390, 355.793 666.699 C 355.374 666.040, 355.024 657.737, 355.015 648.250 L 355 631 364.333 631 C 375.084 631, 374.734 631.159, 374.193 626.531 L 373.781 623 364.391 623 L 355 623 355 613.500 L 355 604 350.500 604 C 348.025 604, 345.977 604.337, 345.948 604.750 M 101.936 614.854 C 101.532 637.878, 102.934 645.016, 109 650.822 C 112.259 653.941, 156.707 680.137, 161.112 681.535 C 163.980 682.446, 168 679.488, 168 676.467 C 168 673.528, 165.224 671.458, 150 663.044 C 128.364 651.088, 117.617 644.416, 115.590 641.683 C 113.856 639.346, 113.415 636.961, 113 627.686 L 112.500 616.505 107.250 613.857 L 102 611.209 101.936 614.854 M 593.718 623.033 C 577.602 627.077, 568.946 645.784, 575.907 661.525 C 585.801 683.898, 618.958 682.706, 626.599 659.702 C 633.838 637.907, 615.581 617.547, 593.718 623.033 M 386.412 624.369 C 386.099 625.185, 385.990 634.361, 386.171 644.759 L 386.500 663.664 389.500 668.492 C 396.157 679.204, 410.460 681, 420.057 672.330 L 424 668.767 424 672.941 L 424 677.115 428.250 676.807 L 432.500 676.500 432.766 649.750 L 433.033 623 428.615 623 L 424.198 623 423.826 640.250 C 423.408 659.636, 422.392 663.359, 416.526 666.984 C 410.912 670.454, 401.915 669.211, 397.927 664.416 C 396.840 663.108, 396.381 658.032, 396 643.100 L 395.500 623.500 391.241 623.192 C 388.186 622.971, 386.821 623.304, 386.412 624.369 M 513.929 623.446 C 513.093 624.084, 513.099 657.236, 513.936 661.137 C 516.141 671.417, 522.729 676.990, 532.685 676.996 C 540.208 677.001, 543.491 675.851, 547.789 671.705 L 551.078 668.532 550.789 678.516 L 550.500 688.500 535.250 688.776 L 520 689.052 520 693.026 L 520 697 536.865 697 C 562.366 697, 561.129 699.148, 560.766 655.500 L 560.500 623.500 556.395 623.200 L 552.291 622.899 551.654 628.200 C 551.304 631.115, 551.013 638.900, 551.007 645.500 C 550.995 659.196, 549.778 662.938, 544.102 666.730 C 537.557 671.103, 526.362 668.714, 523.975 662.434 C 523.439 661.024, 522.996 653.937, 522.991 646.685 C 522.987 639.433, 522.697 631.123, 522.348 628.218 L 521.714 622.936 517.857 623.163 C 515.736 623.289, 513.968 623.416, 513.929 623.446 M 595.256 631.068 C 580.492 635.556, 578.981 659.585, 593.008 666.815 C 605.848 673.434, 618.472 664.646, 618.243 649.250 C 618.042 635.797, 607.397 627.377, 595.256 631.068 M 464.218 632.663 C 452.709 638.336, 452.146 658.128, 463.261 666.361 C 467.628 669.596, 477.513 669.849, 481.927 666.838 C 492.472 659.643, 492.574 640.217, 482.102 633.258 C 477.955 630.502, 469.193 630.211, 464.218 632.663 M 175.236 638.161 L 169.972 641.209 185.236 649.679 C 214.026 665.655, 213.451 664.924, 212.858 684.853 C 212.361 701.525, 214.229 699.576, 180.500 718.603 C 162.538 728.735, 161.352 728.819, 147.962 720.912 C 142.758 717.838, 134.450 713.147, 129.500 710.488 C 112.806 701.520, 112 700.231, 112 682.503 C 112 671.380, 111.927 670.998, 109.495 669.405 C 105.186 666.581, 104.285 668.552, 103.476 682.570 C 102.218 704.392, 104.382 707.729, 129.211 722.237 C 163.728 742.407, 161.129 742.319, 192.426 724.371 C 222.473 707.139, 223 706.429, 223 683.151 C 223 660.211, 221.797 658.432, 196.338 643.728 C 188.026 638.928, 181.063 635.025, 180.863 635.056 C 180.663 635.087, 178.131 636.484, 175.236 638.161" stroke="none" fill="#5936a4" fill-rule="evenodd"/>
</svg>