<svg xmlns="http://www.w3.org/2000/svg" width="720" height="1280" viewBox="0 0 720 1280" version="1.1">
	<path d="M 164 549.901 C 162.625 550.342, 151.375 556.231, 139 562.989 C 126.625 569.746, 113.214 577.065, 109.198 579.252 C 100.294 584.102, 98.441 586.611, 98.885 593.211 C 99.044 595.583, 102.591 598.717, 108.500 601.709 C 111.250 603.101, 113.665 604.388, 113.866 604.569 C 114.722 605.339, 111.827 611.433, 109.997 612.715 C 108.211 613.965, 108 615.253, 108 624.875 C 108 644.182, 111.400 649.939, 128.500 659.593 C 134 662.698, 144.596 668.784, 152.046 673.119 C 166.780 681.691, 169.090 682.319, 171.629 678.443 C 174.359 674.277, 171.482 671.871, 147.303 658.104 C 122.457 643.958, 121.742 643.434, 120.199 638.234 C 118.401 632.174, 118.498 617.112, 120.364 612.660 L 121.973 608.820 125.487 610.910 C 147.571 624.046, 163.307 632, 167.211 632 C 171.977 632, 174.443 630.866, 196.410 618.578 C 206.810 612.760, 215.473 608, 215.660 608 C 215.847 608, 216 614.268, 216 621.929 C 216 636.579, 216.692 639, 220.880 639 C 225.789 639, 226.170 637.540, 226.051 619.198 L 225.938 601.988 230.441 599.268 C 236.677 595.502, 238.468 590.243, 235.211 585.267 C 234.473 584.142, 194.491 561.511, 178.973 553.436 C 171.698 549.650, 167.714 548.710, 164 549.901 M 284 589.084 C 275.330 593.015, 271.680 598.338, 271.672 607.064 C 271.662 617.806, 276.675 622.321, 293.619 626.830 C 312.955 631.977, 316.520 635.514, 312.204 645.273 C 309.467 651.459, 305.090 653.397, 295.277 652.767 C 284.877 652.100, 279.736 647.951, 278.218 638.998 C 277.466 634.565, 277.394 634.496, 273.227 634.193 L 269 633.885 269.022 638.693 C 269.079 651.192, 279.027 660.237, 294.282 661.662 C 310.055 663.135, 323 653.640, 323 640.597 C 323 628.797, 317.476 624.066, 297.610 618.854 C 283.549 615.165, 281.088 613.363, 281.032 606.715 C 280.990 601.735, 283.221 598.529, 288.080 596.585 C 299.042 592.199, 310.725 597.626, 312.362 607.865 L 313.024 612 317.625 612 L 322.227 612 321.517 607.263 C 320.161 598.221, 315.367 592.029, 307.421 589.056 C 300.080 586.310, 290.093 586.322, 284 589.084 M 345.627 604.530 C 345.282 605.429, 345 609.962, 345 614.604 L 345 623.044 338.250 622.772 L 331.500 622.500 331.181 626.392 L 330.862 630.285 337.443 629.757 C 341.596 629.423, 344.267 629.623, 344.684 630.298 C 345.048 630.887, 345.255 638.598, 345.144 647.434 C 344.842 671.539, 345.772 673.086, 360.995 673.814 L 370 674.245 370 670.166 L 370 666.088 362.750 665.794 L 355.500 665.500 355.500 647.500 L 355.500 629.500 360.241 629.839 C 362.849 630.026, 366.787 629.874, 368.991 629.501 C 372.781 628.861, 373 628.632, 373 625.310 L 373 621.795 365.250 622.031 C 360.988 622.162, 356.954 622.208, 356.288 622.134 C 355.458 622.042, 354.984 619.078, 354.788 612.750 L 354.500 603.500 350.377 603.199 C 347.294 602.973, 346.095 603.310, 345.627 604.530 M 59.063 624.855 C 58.002 625.589, 57.879 626.414, 58.593 628.013 C 59.522 630.095, 60.210 630.188, 76.529 630.427 C 85.863 630.564, 94.234 631.002, 95.131 631.400 C 96.351 631.940, 97.024 631.371, 97.802 629.138 C 98.632 626.758, 98.548 626.040, 97.387 625.595 C 94.526 624.497, 60.529 623.840, 59.063 624.855 M 180.250 637.803 C 177.363 639.239, 175.009 640.658, 175.019 640.957 C 175.030 641.256, 183.403 646.180, 193.626 651.901 C 216.831 664.886, 215.991 663.746, 215.996 682.265 L 216 696.029 212.750 699.477 C 210.963 701.373, 201.400 707.497, 191.500 713.087 C 166.249 727.344, 168.761 727.363, 143.412 712.713 C 132.460 706.384, 122.600 700.003, 121.500 698.532 C 119.804 696.265, 119.424 693.810, 119 682.390 C 118.485 668.507, 118.007 667.055, 113.941 667.015 C 109.184 666.969, 108.499 669.071, 108.514 683.672 C 108.532 702.674, 110.605 706.350, 126.257 715.143 C 129.690 717.072, 138.746 722.160, 146.381 726.451 C 164.933 736.876, 168.532 737.322, 181 730.739 C 225.190 707.407, 226.500 706.004, 226.500 682 C 226.500 658.366, 225.737 657.446, 189.500 637.405 L 185.500 635.193 180.250 637.803 M 385.413 683.366 C 385.099 684.184, 384.990 693.324, 385.171 703.677 C 385.545 725.100, 386.125 727.033, 393.795 732.424 C 401.174 737.610, 413.574 736.170, 418.806 729.520 C 421.433 726.180, 421.823 726.321, 422.190 730.750 C 422.491 734.390, 422.625 734.509, 426.750 734.807 L 431 735.115 431 709.057 L 431 683 426.500 683 L 422 683 422 698.980 C 422 716.681, 420.899 721.543, 416.136 724.864 C 410.513 728.787, 401.728 728.180, 397.093 723.550 C 394.523 720.982, 394.496 720.793, 394 701.730 L 393.500 682.500 389.742 682.189 C 387.123 681.973, 385.811 682.329, 385.413 683.366" stroke="none" fill="#5733a3" fill-rule="evenodd"/>
</svg>