<svg xmlns="http://www.w3.org/2000/svg" width="720" height="1280" viewBox="0 0 720 1280" version="1.1">
	<path d="M 153 508.350 C 142.197 514.130, 97.725 538.254, 86.147 544.615 C 70.588 553.162, 69 554.780, 69 562.082 C 69 568.013, 72.177 570.591, 94.102 582.455 C 104.221 587.930, 122.156 597.715, 133.959 604.199 C 145.761 610.683, 156.827 616.252, 158.549 616.575 C 163.777 617.556, 169.608 615.257, 188.228 604.873 C 212.168 591.522, 225.973 584, 226.536 584 C 226.791 584, 227 592.550, 227 603 C 227 620.667, 227.140 622.140, 229 624 C 233.224 628.224, 240.957 625.172, 241.037 619.250 C 241.057 617.737, 241.041 607.178, 241.002 595.785 L 240.929 575.070 245.947 572.527 C 251.902 569.509, 254.455 566.024, 254.455 560.909 C 254.455 554.541, 257.048 556.262, 200 524.775 C 186.525 517.337, 173.605 510.295, 171.290 509.126 C 166.389 506.651, 156.925 506.250, 153 508.350 M 81.163 608.250 C 81.670 634.455, 84.685 640.221, 103.357 650.701 C 108.936 653.832, 124.034 662.424, 136.908 669.796 C 162.538 684.471, 164.446 685.023, 167.946 678.787 C 171.243 672.913, 170.220 672.079, 135.060 651.966 C 95.395 629.275, 97.716 631.735, 97 611.632 L 96.500 597.601 90 593.820 C 80.230 588.137, 80.757 587.277, 81.163 608.250 M 178.759 624.765 C 175.051 626.819, 172.023 628.725, 172.029 629 C 172.042 629.542, 203.504 647.498, 213.523 652.681 C 220.666 656.376, 225.641 661.572, 226.519 666.251 C 226.859 668.063, 226.994 677.185, 226.819 686.523 C 226.436 706.908, 226.112 707.618, 214.220 714.103 C 209.974 716.419, 203.575 719.983, 200 722.022 C 169.357 739.505, 168.341 740, 163.154 740 C 156.324 740, 155.893 739.802, 127.600 723.687 C 95.839 705.596, 97.681 707.970, 97 684.244 C 96.439 664.702, 96.160 664, 88.964 664 C 82.161 664, 81.796 665.220, 82.173 686.666 C 82.686 715.841, 82.888 716.098, 122.268 737.782 C 140.404 747.769, 151.698 753.385, 155.118 754.119 C 166.049 756.463, 174.614 753.489, 199.779 738.613 C 205.676 735.128, 214.100 730.314, 218.500 727.918 C 228.328 722.564, 234.348 717.154, 237.839 710.540 C 241.745 703.141, 242.467 668.995, 238.917 659.509 C 236.309 652.536, 229.431 645.200, 220.977 640.372 C 204.529 630.977, 187.375 621.471, 186.500 621.265 C 185.950 621.136, 182.466 622.711, 178.759 624.765" stroke="none" fill="#5531a1" fill-rule="evenodd"/>
</svg>