<svg xmlns="http://www.w3.org/2000/svg" width="720" height="1280" viewBox="0 0 720 1280" version="1.1">
	<path d="M 163.476 549.902 C 161.618 550.697, 124.650 570.658, 108.738 579.457 C 100.861 583.814, 99 586.054, 99 591.184 C 99 596.124, 100.562 597.466, 116.448 606.165 C 123.627 610.096, 135.350 616.563, 142.500 620.536 C 169.060 635.296, 168.037 635.228, 187.500 623.536 C 191.350 621.224, 199.338 616.747, 205.250 613.588 L 216 607.845 216 622.222 C 216 637.697, 216.394 639, 221.078 639 C 225.767 639, 226.199 637.377, 226.238 619.614 C 226.277 601.363, 226.054 602.273, 231.263 599.108 C 240.518 593.484, 239.050 586.656, 227.154 579.998 C 173.774 550.119, 168.640 547.692, 163.476 549.902 M 486.733 598.697 C 486.485 599.139, 486.357 606.115, 486.449 614.201 L 486.617 628.902 482.413 625.027 C 465.005 608.980, 438.831 627.599, 443.973 652.371 C 447.821 670.906, 469.222 679.925, 481.988 668.392 C 486.662 664.169, 487 664.176, 487 668.500 C 487 671.983, 487.022 672, 491.512 672 L 496.025 672 495.762 635.250 L 495.500 598.500 491.342 598.197 C 489.055 598.030, 486.981 598.255, 486.733 598.697 M 545.752 619.205 C 546.358 644.788, 544.436 649.832, 533.500 651.370 C 528.341 652.096, 523.236 650.240, 520.594 646.678 C 518.681 644.100, 518.470 642.261, 518.154 625.375 L 517.807 606.894 513.654 607.197 L 509.500 607.500 509.225 624.408 C 508.898 644.555, 510.027 650.061, 515.470 654.839 C 523.136 661.570, 533.925 661.609, 542.229 654.936 L 546.080 651.841 545.790 660.671 L 545.500 669.500 530.750 669.777 L 516 670.053 516 674.593 L 516 679.132 532.975 678.816 C 556.575 678.377, 554.370 681.939, 555 643.224 C 555.426 617.064, 555.719 612.500, 556.972 612.500 C 557.875 612.500, 558.446 611.533, 558.449 610 C 558.453 607.733, 558.019 607.472, 553.786 607.198 C 549.344 606.910, 549.104 606.741, 548.809 603.706 C 548.619 601.744, 547.883 600.400, 546.898 600.213 C 545.461 599.941, 545.343 601.896, 545.752 619.205 M 286.994 602.934 C 277.291 605.886, 272.689 611.480, 272.222 620.890 C 271.590 633.613, 277.723 638.629, 299.983 643.597 C 312.524 646.395, 317.118 653.373, 311.974 661.810 C 309.419 666.002, 304.645 668.006, 297.282 667.978 C 286.498 667.937, 279.953 662.812, 278.417 653.204 C 277.746 649.009, 277.735 649, 273.372 649 L 269 649 269.010 653.250 C 269.041 667.005, 280.363 676.394, 297 676.464 C 312.792 676.531, 323 668.603, 323 656.272 C 323 643.787, 317.565 638.851, 298.619 634.129 C 285.115 630.764, 281 627.890, 281 621.825 C 281 614.883, 285.290 611.056, 293.954 610.270 C 304.566 609.308, 312.889 615.643, 312.978 624.750 C 312.998 626.747, 313.507 627, 317.500 627 C 321.539 627, 322 626.763, 322 624.682 C 322 615.449, 315.136 606.049, 306.497 603.449 C 301.417 601.920, 291.213 601.651, 286.994 602.934 M 346.416 605.917 C 346.187 606.146, 346 610.308, 346 615.167 L 346 624 338.500 624 L 331 624 331 628 L 331 632 338.500 632 L 346 632 346 650.050 C 346 674.732, 345.916 674.590, 361.135 675.670 L 370 676.299 370 671.764 L 370 667.229 363.750 667.350 C 354.630 667.528, 355 668.306, 355 648.941 L 355 632 364.500 632 L 374 632 374 628 L 374 624 364.538 624 L 355.075 624 354.788 614.853 L 354.500 605.706 350.666 605.603 C 348.557 605.546, 346.644 605.688, 346.416 605.917 M 535.017 606.480 C 533.925 607.795, 533.928 608.496, 535.031 610.557 C 536.480 613.266, 537.771 613.309, 539.415 610.704 C 541.040 608.128, 536.928 604.177, 535.017 606.480 M 108.332 613.576 C 108.018 614.396, 107.947 620.564, 108.174 627.283 C 108.635 640.931, 111.144 647.740, 117.474 652.529 C 123.040 656.739, 165.952 681, 167.834 681 C 170.647 681, 173.341 677.495, 172.648 674.736 C 172.025 672.251, 171.096 671.657, 140.500 654.200 C 119.929 642.462, 118.728 640.959, 119.150 627.480 C 119.445 618.103, 119.371 617.937, 113.442 614.624 C 109.660 612.510, 108.809 612.335, 108.332 613.576 M 385.024 641.750 C 385.052 660.358, 385.929 665.908, 389.608 670.731 C 396.197 679.369, 410.753 680.180, 418.587 672.346 L 422 668.933 422 672.467 C 422 675.988, 422.016 676, 426.500 676 L 431 676 431 650.500 L 431 625 426.583 625 L 422.165 625 421.833 642.250 C 421.468 661.166, 420.699 663.974, 414.960 667.364 C 411.715 669.281, 404.212 669.510, 400.472 667.805 C 395.677 665.620, 394.528 661.821, 394.335 647.500 C 394.239 640.350, 394.124 632.362, 394.080 629.750 L 394 625 389.500 625 L 385 625 385.024 641.750 M 465.275 627.971 C 457.159 629.899, 452.990 636.102, 453.016 646.210 C 453.045 657.189, 458.380 663.429, 468.793 664.662 C 488.957 667.050, 493.926 633.517, 474.219 628.044 C 470.074 626.893, 469.822 626.891, 465.275 627.971 M 584 634.307 C 582.075 634.914, 578.175 637.727, 575.333 640.557 C 561.686 654.150, 565.213 675.086, 582.580 683.583 C 610.192 697.092, 634.515 660.201, 611.760 639.326 C 605.143 633.256, 593.826 631.210, 584 634.307 M 179.688 638.691 L 174.877 641.277 190.688 650.189 C 217.390 665.238, 216 663.463, 216 682.512 L 216 695.930 213.035 699.307 C 211.405 701.164, 207.242 704.185, 203.785 706.021 C 200.328 707.856, 192.100 712.523, 185.500 716.393 C 168.645 726.274, 166.228 726.271, 149.500 716.352 C 142.900 712.438, 134.300 707.399, 130.389 705.155 C 120.203 699.310, 119.600 698.110, 119.164 682.816 C 118.760 668.643, 117.667 666.114, 112.505 667.409 C 108.611 668.387, 107.741 672.004, 108.250 685.091 C 108.624 694.715, 109.104 697.490, 111.080 701.445 C 114.307 707.907, 115.878 709.071, 139.472 722.496 C 168.985 739.288, 166.805 739.360, 199.500 720.538 C 223.016 707.001, 225.597 704.198, 226.704 690.993 C 227.034 687.058, 227.910 683.233, 228.652 682.491 C 229.393 681.750, 229.964 679.873, 229.921 678.321 C 229.878 676.770, 229.614 676.065, 229.336 676.756 C 228.450 678.952, 227 677.004, 227 673.619 C 227 663.557, 220.897 655.641, 206.966 647.635 C 202.310 644.959, 195.957 641.246, 192.849 639.385 C 186.155 635.375, 185.884 635.360, 179.688 638.691 M 590.123 641.005 C 579.405 643.527, 573.996 655.845, 578.467 667.552 C 582.676 678.574, 596.488 682.071, 605.096 674.294 C 619.099 661.644, 607.930 636.814, 590.123 641.005" stroke="none" fill="#5734a4" fill-rule="evenodd"/>
</svg>