<svg xmlns="http://www.w3.org/2000/svg" width="720" height="1280" viewBox="0 0 720 1280" version="1.1">
	<path d="M 342.845 370.593 C 339.185 371.379, 329.960 374.867, 322.345 378.344 C 297.704 389.594, 261.633 405.680, 225.500 421.531 C 218.900 424.427, 210.350 428.240, 206.500 430.006 C 202.650 431.771, 196.575 434.454, 193 435.968 C 186.874 438.562, 142.075 458.171, 118.959 468.378 C 106.326 473.955, 102.031 477.291, 98.590 484.195 C 93.895 493.616, 95.932 504.108, 103.980 511.965 C 107.588 515.487, 112.073 518.049, 124.063 523.436 C 132.553 527.250, 143.775 532.371, 149 534.815 C 154.225 537.258, 160.300 540.041, 162.500 540.997 C 170.638 544.536, 240.824 576.388, 250 580.707 C 255.225 583.167, 261.668 586.044, 264.317 587.101 C 266.966 588.158, 271.916 590.317, 275.317 591.897 C 278.718 593.477, 286.225 596.895, 292 599.492 C 297.775 602.088, 308.350 606.930, 315.500 610.251 C 340.347 621.792, 342.517 622.406, 358.500 622.417 C 373.509 622.426, 377.403 621.693, 387.433 616.965 C 390.770 615.392, 396.650 612.788, 400.500 611.177 C 404.350 609.566, 412 606.212, 417.500 603.723 C 423 601.234, 437.400 594.820, 449.500 589.471 C 474.442 578.445, 497.648 568.055, 506.500 563.952 C 545.400 545.922, 581.788 529.291, 591.500 525.102 C 611.651 516.412, 614.011 514.741, 618.124 506.245 C 622.886 496.407, 621.363 486.810, 613.703 478.378 C 609.484 473.734, 609.123 473.547, 582.500 462.173 C 565.158 454.764, 491.612 422.182, 458 407.019 C 453.325 404.909, 439.375 398.683, 427 393.183 C 414.625 387.682, 398.890 380.638, 392.034 377.529 C 372.989 368.893, 359.567 367, 342.845 370.593 M 594.207 554.318 C 591.618 556.693, 585.563 561.891, 580.750 565.868 C 572.491 572.693, 570.727 575.095, 572.959 576.474 C 574.748 577.580, 617.440 622.462, 628.880 635.265 C 635.583 642.765, 641.010 648, 642.085 648 C 643.616 648, 670 624.758, 670 623.409 C 670 623.162, 666.737 619.704, 662.750 615.725 C 658.763 611.746, 651.900 604.651, 647.500 599.959 C 634.747 586.357, 615.062 565.127, 608 557.358 C 604.425 553.426, 600.918 550.161, 600.207 550.104 C 599.496 550.047, 596.796 551.943, 594.207 554.318" stroke="none" fill="#5f37ae" fill-rule="evenodd"/>
</svg>